<svg xmlns="http://www.w3.org/2000/svg" xmlns:xlink="http://www.w3.org/1999/xlink" version="1.1" x="0px" y="0px" viewBox="0 0 100 125" style="enable-background:new 0 0 100 100;" xml:space="preserve"><style type="text/css">
	.st0{display:none;}
</style><g><g><path d="M62.7192001,69.6460037c1.8702011,0,3.3916016-1.5225067,3.3916016-3.392601V62.778801    c0-1.8711014-1.5214005-3.3935013-3.3916016-3.3935013c-1.8711014,0-3.394001,1.5223999-3.394001,3.3935013v3.4746017    C59.3251991,68.123497,60.8480988,69.6460037,62.7192001,69.6460037z M61.3325005,62.778801    c0-0.7637024,0.6221008-1.3866997,1.3866997-1.3866997c0.7631989,0,1.3843002,0.6229973,1.3843002,1.3866997v3.4746017    c0,0.7636948-0.6211014,1.3847961-1.3843002,1.3847961c-0.7645988,0-1.3866997-0.6211014-1.3866997-1.3847961V62.778801z     M36.6543007,69.6460037c1.8705978,0,3.3931007-1.5225067,3.3931007-3.392601V62.778801    c0-1.8711014-1.5225029-3.3935013-3.3931007-3.3935013c-1.8706017,0-3.392601,1.5223999-3.392601,3.3935013v3.4746017    C33.2616997,68.123497,34.783699,69.6460037,36.6543007,69.6460037z M35.269001,62.778801    c0-0.7637024,0.6215973-1.3866997,1.3852997-1.3866997c0.7641983,0,1.3857002,0.6229973,1.3857002,1.3866997v3.4746017    c0,0.7636948-0.6215019,1.3847961-1.3857002,1.3847961c-0.7637024,0-1.3852997-0.6211014-1.3852997-1.3847961V62.778801z     M27.7285004,71.5580978c-0.2821999-0.4766006-0.898901-0.6366959-1.3740005-0.3535004    c-0.4771004,0.2812042-0.6362,0.8964996-0.3540001,1.3740005c1.3716011,2.3213043,3.3506012,4.3564987,5.7534008,6.0439987    c0.0375996,0.1171036,0.0932999,0.2304001,0.1758003,0.3300018c3.9526005,4.7989044,10.2279987,10.517601,17.6791973,10.517601    c7.9775009,0,14.5996056-6.669899,17.8369026-10.6445007c0.064003-0.0791016,0.0990982-0.169899,0.1352997-0.2577972    c2.441803-1.7343979,4.4384003-3.8311005,5.7993011-6.2266006c0.2733994-0.482399,0.1044998-1.0937042-0.3775024-1.3682022    c-0.4804001-0.2723999-1.0936966-0.1044006-1.3680954,0.3779984c-3.6294022,6.3886032-12.2696037,10.517601-22.0127029,10.517601    C40.0219994,81.8686981,31.4281998,77.8218002,27.7285004,71.5580978z M49.6088982,87.4634018    c-4.7968979,0-9.1308975-2.7569046-12.5575981-5.9639053c3.7602005,1.5283051,8.0677986,2.3770065,12.5708008,2.3770065    c4.5243988,0,8.8363991-0.8516006,12.5966988-2.3828049C58.9516983,84.5298004,54.5228996,87.4634018,49.6088982,87.4634018z     M33.4756012,51.5601006c0.1801987,0,0.3622971-0.0479012,0.5267982-0.1495018    c1.4522018-0.8973999,4.0376015-1.454998,6.7466011-1.454998c2.3466988,0,4.5698013,0.405201,6.1000977,1.1112976    c0.5025024,0.2344017,1.0996017,0.0127029,1.3320999-0.4911995c0.2314034-0.5028992,0.0122032-1.0995979-0.4912987-1.3320007    c-0.1875-0.0859985-0.3866997-0.1660995-0.5873985-0.2441978v-10.1777c0-3.7109985-3.019001-6.7294998-6.7294998-6.7294998    c-3.7108994,0-6.7294006,3.0185013-6.7294006,6.7294998V49.3237c-0.2471008,0.1201019-0.480999,0.2461014-0.6963005,0.3788986    c-0.4716988,0.2919998-0.6176987,0.910202-0.3261986,1.3828011    C32.8105011,51.3921013,33.1395988,51.5601006,33.4756012,51.5601006z M35.6509018,38.8218002    c0-2.6035004,2.1185989-4.722702,4.7220993-4.722702c2.6040993,0,4.7221985,2.1192017,4.7221985,4.722702v9.580101    c-0.4515991-0.1006012-0.9169998-0.1875-1.4013977-0.2549019c0.6367989-1.1366997,0.719799-3.089901,0.719799-4.5536995    c0-2.8788986-1.8086014-5.2128983-4.0405998-5.2128983c-2.2324028,0-4.0415001,2.3339996-4.0415001,5.2128983    c0,1.5107002,0.0596008,3.5918007,0.7768974,4.6738014c-0.5072975,0.0907974-0.9940987,0.2001991-1.4574966,0.3280983V38.8218002z     M52.1044998,51.5601006c0.1796989,0,0.3628006-0.0479012,0.5268021-0.1495018    c1.4516983-0.8973999,4.0361977-1.454998,6.745697-1.454998c2.3465996,0,4.5703011,0.405201,6.1000977,1.1112976    c0.5029068,0.2344017,1.1000061,0.0127029,1.3320007-0.4911995c0.2319031-0.5028992,0.0121994-1.0995979-0.4906998-1.3320007    c-0.1884995-0.0859985-0.3871994-0.1660995-0.5888977-0.2451973V38.8218002c0-3.7109985-3.0186005-6.7294998-6.7294998-6.7294998    c-3.7103996,0-6.7294998,3.0185013-6.7294998,6.7294998v10.5038986c-0.2461014,0.1191025-0.4794998,0.2441025-0.6948013,0.3768997    c-0.471199,0.2930031-0.6171989,0.910202-0.3256989,1.3828011C51.4398994,51.3921013,51.7686005,51.5601006,52.1044998,51.5601006    z M54.2778015,38.8218002c0-2.6035004,2.1181984-4.722702,4.7221985-4.722702c2.6035004,0,4.7221985,2.1192017,4.7221985,4.722702    v9.580101c-0.4511986-0.1006012-0.9165001-0.1875-1.4003983-0.2549019c0.6362-1.1376991,0.7192001-3.089901,0.7192001-4.5536995    c0-2.8788986-1.8086014-5.2128983-4.0410004-5.2128983c-2.230999,0-4.0405006,2.3339996-4.0405006,5.2128983    c0,1.5107002,0.0595016,3.5908012,0.7763023,4.6738014c-0.5068016,0.0907974-0.9941025,0.2001991-1.4580002,0.3280983V38.8218002z     M91.0170975,18.0932999c-5.8705978-3.0098-18.3149948,0.6191006-22.4965973,1.9834003    C68.9951019,18.8589001,69.5,17.1597004,69.983902,14.7690001c1.0385971-5.125-0.6113052-7.5311999-1.6880035-8.5078001    c-1.1942978-1.0858998-2.7919998-1.4667997-4.2695007-1.0155997C61.3613014,6.0562,61.0674019,8.7222004,61.3022003,10.1011    c0.7700996,3.0176001-1.3246994,7.3436995-2.1273994,8.8427c-1.3876991-0.2528992-2.8148994-0.3915997-4.2749023-0.3915997    h-10.4263c-1.4613991,0-2.8895988,0.1387005-4.2787971,0.3925991c-1.0444031-1.9286995-2.830101-6.0760994-2.1063995-8.9257994    c0.2172966-1.2967997-0.0767021-3.9628-2.741703-4.7733998C33.8690987,4.7934999,32.2714996,5.1753001,31.0767002,6.2612    c-1.0762005,0.9766002-2.7261009,3.3828001-1.6875,8.5078001c0.483799,2.3907003,0.988699,4.0899,1.4633007,5.3077002    c-4.1816006-1.3642998-16.6259422-4.9932003-22.4970322-1.9834003c-2.4521499,1.2578011-2.8686538,3.0293007-2.7866216,4.2949009    C5.851563,26.7388,12.6367197,31.7700005,16.2373009,33.0591011c3.0175991,1.0809975,4.7880993,1.4403992,5.7250996,1.559597    c-0.8374004,2.4296036-1.2993011,5.0332031-1.2993011,7.7421036v14.7695999c0,0.0917969,0.0298004,0.1757965,0.0531998,0.259697    c-5.2802992,3.7695999-8.7407093,9.9327011-8.7407093,16.9003983c0,11.4512024,9.3174095,20.767601,20.7695084,20.767601    h33.8828011c11.4522018,0,20.769104-9.3163986,20.769104-20.767601c0-6.9676971-3.4605026-13.1307983-8.7406998-16.9003983    c0.0233994-0.0839005,0.0531998-0.1679001,0.0531998-0.259697V42.3608017c0-0.4902-0.0200043-0.9765015-0.0493011-1.4598999    c0.0073013-0.0752029,0.0252991-0.1494026,0.0150986-0.2276001c-0.0058975-0.0449028-0.0307999-0.0800018-0.0419998-0.1220016    c-0.1557999-2.0615997-0.5737-4.0498009-1.2230988-5.9326019c0.9375-0.1191978,2.7080002-0.4785995,5.7254944-1.559597    c3.6006012-1.2891006,10.3858032-6.3194008,10.6685028-10.6709003    C93.8856964,21.1226006,93.4692001,19.3511009,91.0170975,18.0932999z M89.1337967,19.4867992    c-6.5811005-0.2841988-14.4379959,2.4473-18.9921951,4.3291016c-0.0692978,0.0292988-0.1205978,0.0800991-0.1797028,0.1210995    c-0.6654968-0.5449009-1.3628006-1.0508003-2.0853958-1.5223999    C68.8852997,22.0601006,82.6147003,17.3159008,89.1337967,19.4867992z M63.2645988,9.6870003    c-0.0135994-0.0820007-0.3177986-2.0156002,1.3462029-2.5215001c0.7934952-0.2422004,1.6674957-0.0254002,2.3349991,0.5801001    c1.2954025,1.1776996,1.6855011,3.5918002,1.0708008,6.6249995c-0.9604034,4.7392998-1.9546051,6.3397999-2.3086014,6.7861004    c-1.4257965-0.7294998-2.9331017-1.3192997-4.5068016-1.7529011C62.230999,17.3901005,64.1230011,13.0404997,63.2645988,9.6870003    z M72.2382965,29.1636009c-0.6391983,2.2549-2.157196,2.4784985-3.0401001,2.3905983    c-1.4447937-0.1454983-2.7367935-1.232399-2.764595-2.3270988c-0.0034027-0.142601,0.0199966-0.2940006,0.0400009-0.4542007    c0.2885971-2.2840996-0.6049042-3.9853001-5.9433022-5.4090996c-3.1411018-0.8369007-4.0713005-1.8780003-4.346199-2.4248009    c-0.065403-0.1288986-0.0982018-0.2431984-0.1182022-0.3477001C62.6533012,20.9398994,68.472702,24.2280006,72.2382965,29.1636009    z M44.4735985,20.5590992h9.5727997c0.0185013,0.3446999,0.0923004,0.7353001,0.2856026,1.1592007    c0.7128983,1.5634003,2.625,2.7695007,5.6806984,3.5848999c4.7173042,1.2588005,4.5800972,2.3446999,4.4692039,3.2178001    c-0.0332031,0.2656002-0.0615005,0.5195007-0.0550995,0.7567997c0.0541992,2.1084003,2.1039963,4.0244007,4.5702972,4.2744007    c0.1669998,0.0157013,0.3364029,0.0253983,0.5083008,0.0253983c1.4878006,0,3.0942001-0.6737976,4.0824966-2.4315987    c1.6099014,2.6719017,2.6641006,5.7148018,2.9990005,8.9687004c-1.3721008,0.6836014-1.7831955,2.2989006-2.1122971,3.6543007    c-0.4634018,1.907299-0.8467026,3.0996971-2.2554016,3.5704002c-3.1313019,1.0429001-4.0878983,4.134697-4.2098999,6.2518997    c-0.4585037-0.0312004-0.9154968-0.0703011-1.3814011-0.0703011H32.7450981    c-3.6547985,0-7.0878983,0.9570007-10.0746975,2.6221008v-2.5107994c6.2733994-2.5390015,4.8944988-7.4834023,4.8710995-7.5605011    c-0.0083008-0.0243988-0.7894993-2.4589996-0.3920994-5.642601c0.3852997-3.080101-1.7207012-4.7733994-3.2090015-5.3936005    C26.9570007,26.6068993,35.0209999,20.5590992,44.4735985,20.5590992z M76.7021027,43.1938019v12.9482994    c-2.0434036-1.1387024-4.3002014-1.9258003-6.6909027-2.3203011c0.0488968-1.2031021,0.4384995-3.777401,2.8438034-4.5781021    c2.5638962-0.8574982,3.1449966-3.2519989,3.5697937-5C76.5239029,43.8353996,76.6128006,43.4897003,76.7021027,43.1938019z     M25.6270008,46.6753006c0.0384998,0.1268997,0.7987995,2.8905983-2.9566002,4.7655983v-9.0800972    c0-1.8593025,0.2353992-3.6660004,0.6763-5.3906021c0.7362995,0.3516006,2.0546989,1.2607994,1.8109989,3.2089996    C24.7012005,43.8373985,25.5977001,46.5884018,25.6270008,46.6753006z M32.4272003,7.7456002    c0.6674995-0.6055002,1.5405998-0.8213,2.3349991-0.5801001c1.6108017,0.4902997,1.3769989,2.3213,1.3638,2.4394994    c-0.8721008,3.4160004,1.0180016,7.7812004,2.046402,9.7987995c-1.5738029,0.4336014-3.0811005,1.0234013-4.5074005,1.7539005    c-0.3540001-0.4473-1.3481026-2.0478001-2.3086014-6.7870998C30.7416992,11.3374004,31.1317997,8.9232998,32.4272003,7.7456002z     M31.4965992,22.4146004c-0.7227001,0.4715996-1.4203987,0.977499-2.0854988,1.5223999    c-0.059-0.0410004-0.1107998-0.0918007-0.1800995-0.1210995c-4.5538006-1.8808002-12.4122009-4.6133003-18.9917412-4.330101    C16.7572994,17.3178997,30.4878006,22.0601006,31.4965992,22.4146004z M16.9136009,31.1693993    c-3.4609613-1.2402-9.1406507-5.8202991-9.3418207-8.9120998c-0.0083003-0.125-0.0044003-0.2656002,0.0117197-0.4130993    c6.1953096-1.4209003,15.0083008,1.4638996,20.2040997,3.5536995c-2.1098995,2.075201-3.8325005,4.5410995-5.0565987,7.277401    c-0.0054016,0-0.0108013-0.0028992-0.016201-0.0028992C22.7061005,32.6831017,21.1807003,32.6968002,16.9136009,31.1693993z     M85.3896027,74.2904968c0,10.3448029-8.4165039,18.7608032-18.7617035,18.7608032H32.7450981    c-10.3456974,0-18.762188-8.4160004-18.762188-18.7608032c0-10.3456955,8.4164906-18.7616959,18.762188-18.7616959h33.8828011    C76.9730988,55.528801,85.3896027,63.9448013,85.3896027,74.2904968z M82.4595032,31.1693993    c-4.2525024,1.5224991-5.7866058,1.5039024-5.7823029,1.5039024c-0.0117035,0-0.0223999,0.0048981-0.0341034,0.0048981    c-1.2241974-2.737299-2.9472961-5.2040997-5.0580978-7.2803001c5.1963043-2.0897999,14.0077972-4.9755001,20.2041016-3.5536995    c0.016098,0.1474991,0.0199966,0.2880993,0.0116959,0.4130993C91.6000977,25.3491001,85.9204025,29.9291992,82.4595032,31.1693993    z"/></g></g></svg>